<svg xmlns="http://www.w3.org/2000/svg" width="410" height="404" viewBox="0 0 410 404" fill="none">
  <path d="M399.641 59.5246L215.643 388.545C212.753 393.749 205.246 393.757 202.353 388.559L10.3601 59.5362C7.14295 53.7591 11.911 46.3531 18.5557 47.4986L205.223 80.6824C206.398 80.8894 207.601 80.8903 208.776 80.685L391.431 47.515C398.069 46.3565 402.845 53.7408 399.638 59.5189L399.641 59.5246Z" fill="url(#paint0_linear)"/>
  <path d="M292.965 1.5744L156.789 28.2552C154.563 28.6937 152.906 30.6517 152.771 32.9326L144.395 174.33C144.198 177.658 147.437 180.146 150.57 178.963L188.42 164.84C191.758 163.572 195.352 165.844 195.427 169.396L197.361 260.503C197.437 264.123 201.212 266.346 204.338 264.682L226.789 252.631C229.964 250.943 233.784 253.252 233.851 256.852L234.868 312.183C234.936 315.846 238.861 318.057 241.954 316.246C268.461 300.813 360.868 247.894 403.21 149.906C404.802 146.252 402.172 142.157 398.218 142.763L359.407 148.628C356.075 149.131 353.292 146.352 353.836 143.031L371.542 32.2037C372.148 28.4787 368.389 25.3914 364.861 26.663L311.369 45.9628C307.568 47.3404 303.699 44.176 304.456 40.1958L308.579 18.6028C309.336 14.6225 305.467 11.4583 301.666 12.8359Z" fill="url(#paint1_linear)"/>
  <defs>
    <linearGradient id="paint0_linear" x1="6.00017" y1="32.9999" x2="235" y2="344" gradientUnits="userSpaceOnUse">
      <stop stop-color="#41D1FF"/>
      <stop offset="1" stop-color="#BD34FE"/>
    </linearGradient>
    <linearGradient id="paint1_linear" x1="194.651" y1="8.81818" x2="236.076" y2="292.989" gradientUnits="userSpaceOnUse">
      <stop stop-color="#FFEA83"/>
      <stop offset="0.0833333" stop-color="#FFDD35"/>
      <stop offset="1" stop-color="#FFA800"/>
    </linearGradient>
  </defs>
</svg>
